<?xml version="1.0" encoding="utf-8" ?><svg xmlns="http://www.w3.org/2000/svg" xmlns:xlink="http://www.w3.org/1999/xlink" width="1030" height="772" viewBox="0 0 1030 772"><defs><linearGradient id="gradient_0" gradientUnits="userSpaceOnUse" x1="834.12653" y1="498.11203" x2="1012.9506" y2="363.04459"><stop offset="0" stop-color="#16A8B1"/><stop offset="1" stop-color="#59CDB5"/></linearGradient></defs><path fill="url(#gradient_0)" transform="scale(0.894097 0.893519)" d="M915.036 318.016C977.506 313.162 1032.03 359.988 1036.67 422.475C1041.31 484.961 994.292 539.324 931.79 543.745C869.593 548.145 815.554 501.41 810.938 439.229C806.323 377.048 852.871 322.847 915.036 318.016Z"/><path fill="#FEFEFE" transform="scale(0.894097 0.893519)" d="M929.638 366.142C933.686 366.119 936.734 366.628 938.013 370.965C939.837 377.15 940.831 383.605 942.124 389.932C944.695 402.535 947.62 415.062 950.898 427.499C952.438 433.449 954.411 441.984 956.901 447.372C963.476 443.167 971.032 433.036 978.531 433.637C1004.45 435.713 1005.02 469.888 978.768 470.946C971.4 471.242 964.609 464.012 960.023 458.806C951.973 459.144 945.518 460.738 942.868 451.774C937.965 435.186 935.95 417.12 930.716 400.722C930.218 408.735 927.8 419.885 926.144 427.796L918.611 463.426C916.773 472.275 914.485 496.395 906.244 500.063C899.72 499.842 897.091 485.593 895.889 480.366C893.881 471.237 889.58 459.576 886.736 450.509C883.502 440.197 880.326 428.398 876.261 418.585C871.618 428.439 865.059 444.087 857.413 451.46C856.525 451.638 855.629 451.779 854.729 451.884C847.759 452.67 822.678 455.722 822.279 445.26C825.69 437.782 843.21 439.301 850.385 439.348C854.885 432.538 858.917 423.789 863.115 416.7C883.508 382.26 888.885 416.939 895.015 435.363C898.358 445.411 901.78 456.691 904.501 467.007C912.799 435.4 917.453 402.398 925.205 370.682C925.559 369.235 928.441 367.087 929.638 366.142Z"/><path fill="#2EA9AC" transform="scale(0.894097 0.893519)" d="M976.921 446.547C979.181 446.718 981.537 447.008 983.278 448.662C984.3 449.637 984.851 451.006 984.789 452.417C984.66 454.98 982.929 456.553 981.238 458.228C978.808 457.758 975.638 457.017 973.912 455.12C973.133 454.274 972.731 453.147 972.798 451.998C972.954 449.475 975.08 448.027 976.921 446.547Z"/><path fill="#2EA9AC" transform="scale(0.894097 0.893519)" d="M369.661 384.477C374.435 384.388 379.56 384.129 384.387 384.247C400.828 384.649 425.153 380.314 431.706 400.362C434.015 407.427 432.326 413.005 429.027 419.341C442.359 431.217 442.697 443.619 432.737 457.911C432.542 458.116 432.347 458.322 432.152 458.527C428.382 462.337 423.623 465.018 418.411 466.269C409.7 468.439 379.862 466.884 368.776 466.77C368.83 439.759 368.89 412.605 368.944 385.585C369.183 385.215 369.422 384.846 369.661 384.477ZM381.539 431.318C382.185 437.785 381.959 447.517 381.996 454.238L393.61 454.334C402.348 454.553 415.132 456.268 422.01 450.18C426.692 446.035 427.82 437.744 422.912 433.367C419.61 430.303 415.96 430.789 411.836 431.195C402.569 431.809 391.011 431.436 381.539 431.318ZM381.824 418.818C388.678 418.79 412.985 420.197 417.011 416.849C432.728 391.348 394.076 397.762 381.543 397.396C382.108 404.135 381.633 411.933 381.824 418.818Z"/><path fill="#2EA9AC" transform="scale(0.894097 0.893519)" d="M523.977 409.144C532.183 408.996 535.618 412.798 541.334 412.912C541.484 412.147 541.776 410.305 542.276 409.98C544.269 408.686 553.386 408.99 555.549 408.973C555.092 428.386 555.06 447.808 555.452 467.223C549.867 467.493 545.814 468.419 541.26 464.412C539.366 464.113 536.986 465.563 535.082 466.44C526.473 469.425 516.009 467.767 508.796 462.181C502.312 457.133 498.097 449.716 497.078 441.562C496.174 433.819 498.418 426.038 503.307 419.967C508.903 412.969 515.304 410.087 523.977 409.144ZM529.037 454.07C537.545 452.606 543.254 444.52 541.784 436.013C540.315 427.506 532.224 421.803 523.718 423.279C515.221 424.754 509.526 432.834 510.994 441.332C512.462 449.83 520.538 455.531 529.037 454.07Z"/><path fill="#2EA9AC" transform="scale(0.894097 0.893519)" d="M191.598 386.254C193.31 387.885 214.509 459.226 216.906 466.647L204.098 466.461C200.511 452.871 195.667 437.207 191.151 423.868C184.998 434.947 175.797 455.444 170.963 467.123C167.817 461.154 153.971 427.154 151.312 425.03L150.203 427.295C146.438 440.367 142.352 453.345 137.948 466.215C134.046 466.092 130.143 466.02 126.24 466.001C133.783 439.617 141.709 412.447 148.867 386.065C152.322 392.802 155.793 401.516 158.912 408.563C162.562 416.812 167.131 426.08 170.342 434.393C177.328 420.956 187.076 400.689 191.598 386.254Z"/><path fill="#2EA9AC" transform="scale(0.894097 0.893519)" d="M341.865 384.309L354.519 384.227C354.996 411.655 354.798 439.941 354.937 467.432C351.622 467.503 346.794 467.947 343.909 466.756C342.89 466.462 342.226 464.023 340.831 464.514C331.66 467.74 327.237 469.484 317.825 465.766C311.668 462.27 306.853 457.545 303.92 451.012C298.003 437.837 305.298 422.036 318.179 416.338C326.15 412.812 334.133 415.209 341.839 418.216C341.918 406.914 341.927 395.611 341.865 384.309ZM331.593 454.391C339.291 452.852 344.281 445.358 342.73 437.662C341.18 429.966 333.678 424.988 325.984 426.551C318.307 428.11 313.343 435.591 314.89 443.271C316.437 450.95 323.911 455.926 331.593 454.391Z"/><path fill="#2EA9AC" transform="scale(0.894097 0.893519)" d="M261.623 409.162C269.044 409.192 275.02 410.457 280.855 415.31C287.091 420.496 292.15 429.926 292.689 438.055C292.773 439.32 292.653 441.024 291.714 441.977C288.956 444.777 253.018 443.369 246.9 443.611C247.306 444.311 247.723 445.006 248.149 445.694C255.532 457.571 265.062 457.262 275.59 450.009L285.328 450.034C287.489 450.238 287.093 449.873 288.492 451.03C289.476 457.98 273.016 467.872 267.493 468.22C227.138 470.759 218.763 413.693 261.623 409.162ZM246.727 432.622L264.209 432.54C267.232 432.589 276.8 433.214 278.848 431.628C278.192 424.898 268.065 421.238 262.224 420.883C253.03 422.652 251.009 424.399 246.727 432.622Z"/><path fill="#2EA9AC" transform="scale(0.894097 0.893519)" d="M697.108 386.231C699.816 389.304 706.546 404.937 708.751 409.649C717.687 428.651 726.487 447.716 735.149 466.845L721.621 466.826C719.685 461.006 714.55 451.091 711.745 445.408C706.991 435.552 702.134 425.747 697.174 415.993L696.981 415.928C696.003 416.364 692.497 425.521 691.583 427.516C685.575 440.584 679.494 453.618 673.339 466.617C669.221 466.802 664.265 466.733 660.083 466.77C665.837 454.897 670.584 442.496 676.347 430.695C683.535 415.976 690.09 400.99 697.108 386.231Z"/><path fill="#2EA9AC" transform="scale(0.894097 0.893519)" d="M581.737 385.02C586.191 384.891 590.646 384.792 595.101 384.722C595.095 394.841 594.93 406.276 595.702 416.271L610.234 416.349L610.299 428.571C605.488 428.523 600.434 428.296 595.605 428.151C595.507 433.676 594.824 444.414 596.175 449.536C597.234 453.547 606.429 454.405 609.986 455.771C612.224 456.631 614.854 457.602 617.319 458.647L612.424 462.528C605.298 467.186 596.466 471.533 589.263 464.009C581.04 455.419 582.188 439.497 582.292 428.491L568.664 428.514L568.621 416.781L582.204 416.577C582.173 406.056 582.017 395.537 581.737 385.02Z"/><path fill="#2EA9AC" transform="scale(0.894097 0.893519)" d="M756.453 384.874C760.741 384.664 765.639 384.733 769.977 384.692C769.59 411.814 769.931 439.775 769.941 466.976L756.556 466.75C756.312 439.459 756.277 412.166 756.453 384.874Z"/><path fill="#2EA9AC" transform="scale(0.894097 0.893519)" d="M452.977 408.587L467.817 408.929L467.544 415.751C473.726 412.579 476.464 411.627 483.171 410.087L483.144 422.942C468.666 426.983 467.197 430.486 466.903 444.883C466.921 452.116 467.158 459.542 467.306 466.789L453.525 466.766C453.75 448.679 453.669 426.582 452.977 408.587Z"/><path fill="#2EA9AC" transform="scale(0.894097 0.893519)" d="M1020.38 332.096C1026.34 330.974 1032.08 334.867 1033.25 340.813C1034.41 346.759 1030.56 352.532 1024.62 353.739C1018.63 354.959 1012.78 351.06 1011.6 345.052C1010.43 339.045 1014.37 333.229 1020.38 332.096Z"/><path fill="#2EA9AC" transform="scale(0.894097 0.893519)" d="M633.5 454.939C642.383 456.809 640.253 463.122 635.546 468.281C628.364 463.929 626.265 460.591 633.5 454.939Z"/></svg>